<?xml version="1.0" encoding="utf-8"?>
<!-- Generator: Adobe Illustrator 20.1.0, SVG Export Plug-In . SVG Version: 6.00 Build 0)  -->
<svg version="1.1" id="Capa_1" xmlns="http://www.w3.org/2000/svg" xmlns:xlink="http://www.w3.org/1999/xlink" x="0px" y="0px"
	 viewBox="0 0 39 29" style="enable-background:new 0 0 39 29;" xml:space="preserve">
<title>mark</title>
<desc>Created with Sketch.</desc>
<g>
	<path d="M37.3,1.3c-1.6-1.5-4-1.4-5.5,0.1L13.6,19.6l-6.4-6.4c-1.5-1.5-3.9-1.5-5.4,0c-1.5,1.5-1.5,3.9,0,5.4l8.8,8.8
		c0.4,0.4,0.9,0.7,1.4,0.9c1.5,0.7,3.3,0.5,4.5-0.8L37.2,6.9C38.7,5.4,38.7,2.9,37.3,1.3z"/>
	<path d="M37.2,1.2c0,0,0.1,0.1,0.1,0.1c0,0,0.1,0.1,0.1,0.1L37.2,1.2z"/>
</g>
</svg>
