<?xml version="1.0" encoding="utf-8"?>
<!-- Generator: Adobe Illustrator 20.1.0, SVG Export Plug-In . SVG Version: 6.00 Build 0)  -->
<svg version="1.1" id="Capa_1" xmlns="http://www.w3.org/2000/svg" xmlns:xlink="http://www.w3.org/1999/xlink" x="0px" y="0px"
	 viewBox="0 0 240 52" style="enable-background:new 0 0 240 52;" xml:space="preserve">
<title>Page 1</title>
<desc>Created with Sketch.</desc>
<g id="Crear-cuenta">
	<g id="_x33_-Inicio-sesión" transform="translate(-151.000000, -227.000000)">
		<g id="Page-1" transform="translate(151.000000, 227.000000)">
			<g id="Group">
				<g id="Group-3">
					<path id="Fill-1" d="M27.3,17.2c-0.3,1.6-0.5,2.2-2,2.2c-2.3-0.2-3.5-0.3-6.1-0.3C12,19,8.7,22.9,8.7,31v1
						c0,8.2,3.5,11.9,10.9,11.9c2.4,0,4.4-0.2,6.1-0.4c1.2-0.1,1.7,0.5,1.9,2.2l0.1,1.2c0.2,1.6-0.4,2.3-2.1,2.6
						c-3.9,0.5-6.6,0.7-8,0.7C5.6,50.2,0,44.4,0,31.7v-0.7c0-12.3,5.9-18.2,17.3-18.2c3.2,0,5.5,0.2,8.2,0.7
						c1.5,0.3,2.4,0.7,2.1,2.6L27.3,17.2z"/>
					<path id="Fill-5" d="M43.5,40.8c0,4.1,2.8,6.1,8.3,6.1c1.9,0,3.9-0.3,6.3-0.9v-9.8c-1.5-1-3.9-1.4-7.1-1.4
						c-2.5,0-4.3,0.5-5.6,1.5c-1.3,1-1.9,2.4-1.9,4.2V40.8z M34.7,40.9v-1.2c0-3.3,1.2-5.9,3.6-7.7c2.4-1.8,5.7-2.7,10-2.7
						c3,0,6.2,0.6,9.7,1.9v-5.1c0-2-0.6-3.4-1.8-4.4c-1.2-1-3.3-1.4-6.2-1.4c-3.1,0-7.1,0.5-11.9,1.5l-1.3-6.2
						c1.6-0.4,3.9-0.7,6.9-1.1s5.6-0.5,7.9-0.5c5,0,8.7,1,11.1,3c2.4,2,3.6,5,3.6,9.1v23.3c-2,0.7-4.3,1.3-7.1,1.7
						c-2.8,0.4-5.5,0.6-8.1,0.6c-2.3,0-4.4-0.2-6.3-0.5c-1.9-0.4-3.6-0.9-5.2-1.7c-1.6-0.8-2.8-1.9-3.6-3.4
						C35.2,44.7,34.7,42.9,34.7,40.9L34.7,40.9z"/>
					<path id="Fill-7" d="M74.2,51.1V18c2.2-1.2,5-2.1,8.1-2.9c3.2-0.7,6.2-1.1,9.2-1.1c5,0,8.7,1.2,11.2,3.6
						c2.4,2.4,3.6,5.8,3.6,10.1v23.4H98V28.5c0-5.2-2.4-7.8-7.3-7.8c-1.3,0-2.8,0.2-4.4,0.5c-1.7,0.3-2.9,0.7-3.8,1.1v28.7H74.2z"/>
					<path id="Fill-9" d="M122,33.4c0,8,3.5,12.1,10.4,12.1c2.3,0,4.3-0.3,5.9-1v-22c-2.1-1.2-4.5-1.8-7.1-1.8
						c-6.2,0-9.2,4-9.2,11.9V33.4z M113.3,33.4v-0.9c0-5.9,1.3-10.5,3.9-13.8c2.6-3.2,6.3-4.8,11.2-4.8c3,0,6.4,0.7,9.9,2.2V0.4h8.3
						v49.4c-2,0.6-4.4,1.1-7.3,1.4c-2.9,0.4-5.5,0.6-7.8,0.6c-2.7,0-5.1-0.3-7.2-1c-2.1-0.6-4-1.7-5.7-3.1c-1.7-1.4-3-3.3-3.9-5.7
						C113.8,39.6,113.3,36.7,113.3,33.4L113.3,33.4z"/>
					<path id="Fill-12" d="M154.7,41.3V14.6h8.3v26.6c0,1.3,0.2,2.2,0.5,2.7c0.3,0.5,0.9,0.8,1.7,0.8c0.1,0,1.1-0.1,2.8-0.4l1.1,5.4
						c-1.9,0.9-4.1,1.3-6.4,1.3c-2.7,0-4.8-0.7-6.1-2.1C155.4,47.6,154.7,45.1,154.7,41.3L154.7,41.3z M154.5,9.9h8.8V1.1h-8.8V9.9z
						"/>
					<path id="Fill-14" d="M180.3,29.8h16.6c-0.2-6.3-2.9-9.5-8.1-9.5c-2.7,0-4.7,0.8-6.1,2.3C181.3,24.2,180.5,26.6,180.3,29.8
						 M171.7,33.4v-1.2c0-6,1.4-10.5,4.2-13.6c2.8-3.1,6.9-4.7,12.5-4.7c5.5,0,9.7,1.5,12.6,4.5c2.9,3,4.3,7.7,4.3,13.9v2.9h-24.8
						c0.2,3.8,1.2,6.4,3.1,7.9c1.8,1.5,4.9,2.2,9.1,2.2c3.5,0,7.5-0.4,12.1-1.2l0.8,5.9c-1.3,0.4-3.4,0.7-6.3,1.1
						c-2.9,0.3-5.5,0.5-7.8,0.5c-6.6,0-11.6-1.5-14.8-4.4C173.3,44.5,171.7,39.8,171.7,33.4"/>
					<path id="Fill-16" d="M212.2,51.1V17.1c3.9-2.1,8.6-3.2,14-3.2c2.9,0,5.6,0.3,8.3,0.9l-1.3,6.2c-1.7-0.3-3.4-0.5-5.2-0.5
						c-2.9,0-5.4,0.4-7.6,1.2v29.4H212.2z"/>
					<path id="Fill-3" d="M256.2,39.9h1.1c1.3,0,2.4-0.4,2.4-1.5c0-0.9-0.7-1.5-2.2-1.5c-0.6,0-1.1,0.1-1.3,0.1V39.9z M256.2,45.7
						h-2.4V35.5c1-0.2,2.3-0.3,4-0.3c2,0,2.8,0.3,3.6,0.8c0.6,0.4,1,1.2,1,2.2c0,1.1-0.9,2-2.1,2.4v0.1c1,0.4,1.6,1.1,1.9,2.5
						c0.3,1.5,0.5,2.2,0.8,2.6h-2.6c-0.3-0.4-0.5-1.3-0.8-2.5c-0.2-1.1-0.8-1.6-2.1-1.6h-1.1V45.7z M249.8,40.3
						c0,4.5,3.4,8.1,8.1,8.1c4.5,0,7.9-3.6,7.9-8.1c0-4.5-3.3-8.2-8-8.2C253.2,32.2,249.8,35.9,249.8,40.3L249.8,40.3z M268.4,40.3
						c0,5.8-4.6,10.3-10.6,10.3c-5.9,0-10.6-4.5-10.6-10.3c0-5.6,4.7-10.2,10.6-10.2C263.8,30.2,268.4,34.7,268.4,40.3L268.4,40.3z"
						/>
				</g>
			</g>
		</g>
	</g>
</g>
</svg>
