<?xml version="1.0" encoding="utf-8"?>
<!-- Generator: Adobe Illustrator 20.1.0, SVG Export Plug-In . SVG Version: 6.00 Build 0)  -->
<svg version="1.1" id="Layer_1" xmlns="http://www.w3.org/2000/svg" xmlns:xlink="http://www.w3.org/1999/xlink" x="0px" y="0px"
	 viewBox="0 0 100 100" style="enable-background:new 0 0 100 100;" xml:space="preserve">
<path d="M89.5,27.1H75.8v-9.4c0-5-3.9-8.6-8.9-8.6H35.4c-5,0-9.6,3.6-9.6,8.6v9.4h-13c-5,0-9,3.7-9,8.6V83c0,5,4,9.1,9,9.1h76.6
	c5,0,8.4-4.1,8.4-9.1V35.7C97.8,30.8,94.5,27.1,89.5,27.1z M30.8,16.3c0-2.5,2.2-3.2,4.6-3.2H67c2.5,0,3.9,0.8,3.9,3.2v10.8h-40
	V16.3z M12.6,31.1h36.4h4.5h35.7c2.5,0,4.7,1.9,4.7,4.4v18.6h-86V35.5C7.8,33,10.1,31.1,12.6,31.1z M57.5,58.1
	c-0.8,3-3.2,4.5-6.1,4.5c-2.9,0-5.3-1.5-6.1-4.5H57.5z M89.2,88.1H53.4h-4.5H12.6c-2.5,0-4.7-2.8-4.7-5.3V58.1h32.9
	c0.9,5,5.3,9,10.7,9s9.8-4,10.7-9h31.7v24.7C93.8,85.3,91.6,88.1,89.2,88.1z"/>
</svg>
