<?xml version="1.0" encoding="utf-8"?>
<!-- Generator: Adobe Illustrator 20.1.0, SVG Export Plug-In . SVG Version: 6.00 Build 0)  -->
<svg version="1.1" id="Layer_1" xmlns="http://www.w3.org/2000/svg" xmlns:xlink="http://www.w3.org/1999/xlink" x="0px" y="0px"
	 viewBox="0 0 102.8 96.1" style="enable-background:new 0 0 102.8 96.1;" xml:space="preserve">
<title>notificacion</title>
<g>
	<path d="M91.6,0H11.2C5,0,0,5,0,11.2v53.2c0,6.2,5,11.2,11.2,11.2h31.1l28.9,19.5c0.9,0.6,2,1,3.1,1c0.6,0,1.3-0.2,1.8-0.4
		c1.6-0.9,2.4-2.6,2.3-4.4V75.7h13.2c6.2-0.1,11.2-5,11.2-11.2V11.2C102.8,5,97.8,0,91.6,0z M98.2,64.5c0,3.7-3,6.7-6.7,6.7H76.1
		c-1.2,0-2.2,1-2.2,2.2v17.9c0,0,0,0.1,0,0.2l-0.2-0.1L44.2,71.6c-0.3-0.3-0.8-0.4-1.2-0.4H11.2c-3.7,0-6.7-3-6.7-6.7V11.2
		c0-3.7,3-6.7,6.7-6.7h80.3c3.7,0,6.7,3,6.7,6.7V64.5z"/>
	<rect x="26" y="24.7" width="51.4" height="5.5"/>
	<rect x="26" y="43.9" width="30.1" height="5.5"/>
</g>
</svg>
