<?xml version="1.0" encoding="utf-8"?>
<!-- Generator: Adobe Illustrator 20.1.0, SVG Export Plug-In . SVG Version: 6.00 Build 0)  -->
<svg version="1.1" id="Capa_1" xmlns="http://www.w3.org/2000/svg" xmlns:xlink="http://www.w3.org/1999/xlink" x="0px" y="0px"
	 viewBox="0 0 233 22" style="enable-background:new 0 0 233 22;" xml:space="preserve">
<style type="text/css">
	.st0{filter:url(#Adobe_OpacityMaskFilter);}
	.st1{fill:#FFFFFF;}
	.st2{mask:url(#mask-2);}
	.st3{filter:url(#Adobe_OpacityMaskFilter_1_);}
	.st4{mask:url(#mask-4);}
	.st5{filter:url(#Adobe_OpacityMaskFilter_2_);}
	.st6{mask:url(#mask-6);}
	.st7{filter:url(#Adobe_OpacityMaskFilter_3_);}
	.st8{mask:url(#mask-8);}
	.st9{filter:url(#Adobe_OpacityMaskFilter_4_);}
	.st10{mask:url(#mask-10);}
</style>
<title>Group</title>
<desc>Created with Sketch.</desc>
<g id="Crear-cuenta">
	<g id="_x32_-Permiso-ubicación" transform="translate(-154.000000, -820.000000)">
		<g id="Group" transform="translate(154.000000, 820.000000)">
			<g id="Group-20" transform="translate(18.131614, 5.752664)">
				<g id="Clip-19">
				</g>
				<defs>
					<filter id="Adobe_OpacityMaskFilter" filterUnits="userSpaceOnUse" x="0.5" y="0.2" width="14.7" height="15.6">
						<feColorMatrix  type="matrix" values="1 0 0 0 0  0 1 0 0 0  0 0 1 0 0  0 0 0 1 0"/>
					</filter>
				</defs>
				<mask maskUnits="userSpaceOnUse" x="0.5" y="0.2" width="14.7" height="15.6" id="mask-2">
					<g class="st0">
						<polygon id="path-1" class="st1" points="0.5,15.8 15.2,15.8 15.2,0.2 0.5,0.2 						"/>
					</g>
				</mask>
				<path id="Fill-18" class="st2" d="M11.5,7.8c0-3.2-1.2-5-3.7-5c-2.5,0-3.7,1.7-3.7,4.9v0.5c0,3.2,1.2,5,3.7,5
					c2.5,0,3.7-1.8,3.7-5V7.8z M0.5,7.7c0-5,2.6-7.5,7.3-7.5c4.7,0,7.3,2.6,7.3,7.5v0.5c0,5-2.6,7.6-7.3,7.6c-4.7,0-7.3-2.6-7.3-7.6
					V7.7z"/>
			</g>
			<g id="Group-23" transform="translate(35.297490, 5.752664)">
				<g id="Clip-22">
				</g>
				<defs>
					<filter id="Adobe_OpacityMaskFilter_1_" filterUnits="userSpaceOnUse" x="0.3" y="0.2" width="11.6" height="15.6">
						<feColorMatrix  type="matrix" values="1 0 0 0 0  0 1 0 0 0  0 0 1 0 0  0 0 0 1 0"/>
					</filter>
				</defs>
				<mask maskUnits="userSpaceOnUse" x="0.3" y="0.2" width="11.6" height="15.6" id="mask-4">
					<g class="st3">
						<polygon id="path-3" class="st1" points="0.3,15.8 11.8,15.8 11.8,0.2 0.3,0.2 						"/>
					</g>
				</mask>
				<path id="Fill-21" class="st4" d="M11.7,2c-0.1,0.7-0.2,0.9-0.8,0.9c-1-0.1-1.4-0.1-2.5-0.1c-3,0-4.4,1.6-4.4,5v0.4
					c0,3.4,1.5,5,4.5,5c1,0,1.9-0.1,2.5-0.2c0.5,0,0.7,0.2,0.8,0.9l0.1,0.5c0.1,0.7-0.2,1-0.9,1.1c-1.6,0.2-2.7,0.3-3.4,0.3
					c-4.9,0-7.3-2.4-7.3-7.7V7.8c0-5.1,2.5-7.6,7.2-7.6c1.3,0,2.3,0.1,3.4,0.3c0.6,0.1,1,0.3,0.9,1.1L11.7,2z"/>
			</g>
			<g id="Group-26" transform="translate(48.531177, 5.752664)">
				<g id="Clip-25">
				</g>
				<defs>
					<filter id="Adobe_OpacityMaskFilter_2_" filterUnits="userSpaceOnUse" x="0.1" y="0.2" width="11.6" height="15.6">
						<feColorMatrix  type="matrix" values="1 0 0 0 0  0 1 0 0 0  0 0 1 0 0  0 0 0 1 0"/>
					</filter>
				</defs>
				<mask maskUnits="userSpaceOnUse" x="0.1" y="0.2" width="11.6" height="15.6" id="mask-6">
					<g class="st5">
						<polygon id="path-5" class="st1" points="0.1,15.8 11.6,15.8 11.6,0.2 0.1,0.2 						"/>
					</g>
				</mask>
				<path id="Fill-24" class="st6" d="M11.5,2c-0.1,0.7-0.2,0.9-0.8,0.9c-1-0.1-1.4-0.1-2.5-0.1c-3,0-4.4,1.6-4.4,5v0.4
					c0,3.4,1.5,5,4.5,5c1,0,1.9-0.1,2.5-0.2c0.5,0,0.7,0.2,0.8,0.9l0.1,0.5c0.1,0.7-0.2,1-0.9,1.1c-1.6,0.2-2.7,0.3-3.4,0.3
					c-4.9,0-7.3-2.4-7.3-7.7V7.8c0-5.1,2.5-7.6,7.2-7.6c1.3,0,2.3,0.1,3.4,0.3c0.6,0.1,1,0.3,0.9,1.1L11.5,2z"/>
			</g>
			<path id="Fill-27" d="M85,20.1c0,0.8-0.4,1.2-1.2,1.2h-1.1c-0.8,0-1.2-0.3-1.2-1.2V12c0-2-0.9-3.3-2.9-3.3c-1,0-2.4,0.5-3,0.9
				v10.4c0,0.8-0.4,1.2-1.2,1.2h-1.1c-0.8,0-1.2-0.3-1.2-1.2v-9.3c-0.1-1.3-1-2.1-2.9-2.1c-1,0-2.4,0.4-3,0.7v10.7
				c0,0.8-0.3,1.2-1.2,1.2h-1.1c-0.8,0-1.2-0.3-1.2-1.2V8.7c0-0.8,0.3-1.4,1.2-1.6c1.3-0.6,3.4-1.2,5.6-1.2c1.9,0,3.3,0.4,4.3,1.1
				c1.6-0.6,3.4-1.1,5.1-1.1c4.2,0,6,2.3,6,5.8V20.1z"/>
			<path id="Fill-29" d="M88.2,7.4c0-0.8,0.4-1.2,1.2-1.2h1.1c0.8,0,1.2,0.3,1.2,1.2v8.3c0,1.9,1,3.1,3.1,3.1c1.1,0,2.5-0.2,3.2-0.5
				V7.4c0-0.8,0.3-1.2,1.2-1.2h1.1c0.8,0,1.2,0.3,1.2,1.2v12c0,0.8-0.5,1.3-1.2,1.4c-0.8,0.3-3.6,0.7-5.6,0.7
				c-4.5,0-6.4-2.1-6.4-5.5V7.4z"/>
			<path id="Fill-31" d="M117.9,20.1c0,0.8-0.3,1.2-1.2,1.2h-1.1c-0.8,0-1.2-0.3-1.2-1.2v-8.2c0-2-0.9-3.2-3-3.2
				c-1.1,0-2.7,0.4-3.4,0.7v10.7c0,0.8-0.3,1.2-1.2,1.2h-1.1c-0.8,0-1.2-0.3-1.2-1.2V8.7c0-0.8,0.4-1.3,1.2-1.6
				c1.2-0.6,3.6-1.1,6-1.1c4.3,0,6.1,2.2,6.1,5.5V20.1z"/>
			<path id="Fill-33" d="M124.3,13.9c0,3.5,1.4,5,4.1,5c1,0,2.2-0.2,2.7-0.4V9.4c-0.9-0.5-1.9-0.7-2.9-0.7c-2.7,0-3.8,1.8-3.8,4.9
				V13.9z M131.1,6.8V1.5c0-0.8,0.4-1.2,1.2-1.2h1.1c0.8,0,1.2,0.3,1.2,1.2v18.1c0,0.8-0.1,1.2-1.2,1.4c-0.7,0.2-3.1,0.6-5.1,0.6
				c-4.5,0-7.5-1.8-7.5-7.5v-0.4c0-4.9,2-7.7,6.5-7.7C128.6,5.9,130,6.2,131.1,6.8L131.1,6.8z"/>
			<path id="Fill-35" d="M143.6,19.6c0.1,0.8,0,1.2-0.8,1.4c-0.5,0.2-1,0.2-1.6,0.2c-2.1,0-3.4-0.7-3.4-4V7.4c0-0.8,0.3-1.2,1.2-1.2
				h1.1c0.8,0,1.2,0.3,1.2,1.2v9.8c0,1,0.2,1.4,0.9,1.4c0.2,0,0.5-0.1,0.7-0.1c0.3-0.1,0.5,0.2,0.6,0.9L143.6,19.6z M139,4.3
				c-0.8,0-1.2-0.4-1.2-1.2V1.8c0-0.8,0.3-1.2,1.2-1.2h1.3c0.8,0,1.2,0.3,1.2,1.2v1.3c0,0.8-0.3,1.2-1.2,1.2H139z"/>
			<path id="Fill-37" d="M148.4,16.9c0,1.6,1.2,2.4,3.4,2.4c1.2,0,2.2-0.3,2.6-0.4v-3.7c-0.5-0.3-1.7-0.6-2.9-0.6
				c-2.1,0-3.1,0.8-3.1,2.2V16.9z M154.4,12.9v-2c0-1.4-0.7-2.4-3.4-2.4c-1.6,0-3.2,0.3-3.8,0.4c-1,0.2-1.1-0.2-1.2-0.9l-0.1-0.3
				c-0.2-1,0-1.1,1-1.3c1.3-0.3,3.6-0.5,5.1-0.5c4.5,0,6,1.4,6,5v8.5c0,0.9-0.2,1.2-1.2,1.4c-0.8,0.3-2.7,0.7-5.1,0.7
				c-3.7,0-6.8-1-6.8-4.5v-0.5c0-2.8,2.1-4.3,5.7-4.3C151.9,12.2,153.1,12.5,154.4,12.9L154.4,12.9z"/>
			<path id="Fill-39" d="M167,19.9c0.1,0.8-0.1,1-0.9,1.1c-0.5,0.1-1.1,0.2-1.7,0.2c-2.1,0-3.2-0.9-3.2-4V1.3c0-0.8,0.3-1.2,1.2-1.2
				h1.1c0.8,0,1.2,0.3,1.2,1.2v15.9c0,1,0.2,1.4,0.9,1.4c0.2,0,0.6-0.1,0.8-0.1c0.5,0,0.6,0.4,0.7,0.9L167,19.9z"/>
			<path id="Fill-41" d="M169.9,21.3c-0.8,0-1.2-0.3-1.2-1.2v-1.6c0-0.8,0.3-1.1,1.2-1.1h1.3c0.8,0,1.2,0.3,1.2,1.1v1.6
				c0,0.8-0.3,1.2-1.2,1.2H169.9z"/>
			<g id="Group-45" transform="translate(174.777839, 5.752664)">
				<g id="Clip-44">
				</g>
				<defs>
					<filter id="Adobe_OpacityMaskFilter_3_" filterUnits="userSpaceOnUse" x="0.2" y="0.2" width="11.6" height="15.6">
						<feColorMatrix  type="matrix" values="1 0 0 0 0  0 1 0 0 0  0 0 1 0 0  0 0 0 1 0"/>
					</filter>
				</defs>
				<mask maskUnits="userSpaceOnUse" x="0.2" y="0.2" width="11.6" height="15.6" id="mask-8">
					<g class="st7">
						<polygon id="path-7" class="st1" points="0.2,15.8 11.8,15.8 11.8,0.2 0.2,0.2 						"/>
					</g>
				</mask>
				<path id="Fill-43" class="st8" d="M11.6,2c-0.1,0.7-0.2,0.9-0.8,0.9c-1-0.1-1.4-0.1-2.5-0.1c-3,0-4.4,1.6-4.4,5v0.4
					c0,3.4,1.5,5,4.5,5c1,0,1.9-0.1,2.5-0.2c0.5,0,0.7,0.2,0.8,0.9l0.1,0.5c0.1,0.7-0.2,1-0.9,1.1c-1.6,0.2-2.7,0.3-3.4,0.3
					c-4.9,0-7.3-2.4-7.3-7.7V7.8c0-5.1,2.5-7.6,7.2-7.6c1.3,0,2.3,0.1,3.4,0.3c0.6,0.1,1,0.3,0.9,1.1L11.6,2z"/>
			</g>
			<g id="Group-48" transform="translate(187.295306, 5.752664)">
				<g id="Clip-47">
				</g>
				<defs>
					<filter id="Adobe_OpacityMaskFilter_4_" filterUnits="userSpaceOnUse" x="0.7" y="0.2" width="14.7" height="15.6">
						<feColorMatrix  type="matrix" values="1 0 0 0 0  0 1 0 0 0  0 0 1 0 0  0 0 0 1 0"/>
					</filter>
				</defs>
				<mask maskUnits="userSpaceOnUse" x="0.7" y="0.2" width="14.7" height="15.6" id="mask-10">
					<g class="st9">
						<polygon id="path-9" class="st1" points="0.7,15.8 15.4,15.8 15.4,0.2 0.7,0.2 						"/>
					</g>
				</mask>
				<path id="Fill-46" class="st10" d="M11.7,7.8c0-3.2-1.2-5-3.7-5c-2.5,0-3.7,1.7-3.7,4.9v0.5c0,3.2,1.2,5,3.7,5
					c2.5,0,3.7-1.8,3.7-5V7.8z M0.7,7.7c0-5,2.6-7.5,7.3-7.5s7.3,2.6,7.3,7.5v0.5c0,5-2.6,7.6-7.3,7.6s-7.3-2.6-7.3-7.6V7.7z"/>
			</g>
			<path id="Fill-49" d="M227.7,20.1c0,0.8-0.4,1.2-1.2,1.2h-1.1c-0.8,0-1.2-0.3-1.2-1.2V12c0-2-0.9-3.3-2.9-3.3c-1,0-2.4,0.5-3,0.9
				v10.4c0,0.8-0.4,1.2-1.2,1.2H216c-0.8,0-1.2-0.3-1.2-1.2v-9.3c-0.1-1.3-1-2.1-2.9-2.1c-1,0-2.4,0.4-3,0.7v10.7
				c0,0.8-0.3,1.2-1.2,1.2h-1.1c-0.8,0-1.2-0.3-1.2-1.2V8.7c0-0.8,0.3-1.4,1.2-1.6c1.3-0.6,3.4-1.2,5.6-1.2c1.9,0,3.3,0.4,4.3,1.1
				c1.6-0.6,3.4-1.1,5.1-1.1c4.2,0,6,2.3,6,5.8V20.1z"/>
			<path id="Fill-51" d="M230.5,7.3h0.2c0.3,0,0.5-0.1,0.5-0.3c0-0.2-0.1-0.3-0.4-0.3c-0.1,0-0.2,0-0.3,0V7.3z M230.5,8.4h-0.5V6.5
				c0.2,0,0.4-0.1,0.8-0.1c0.4,0,0.5,0.1,0.7,0.1c0.1,0.1,0.2,0.2,0.2,0.4c0,0.2-0.2,0.4-0.4,0.4v0c0.2,0.1,0.3,0.2,0.4,0.5
				c0.1,0.3,0.1,0.4,0.1,0.5h-0.5c-0.1-0.1-0.1-0.2-0.2-0.5c0-0.2-0.2-0.3-0.4-0.3h-0.2V8.4z M229.3,7.4c0,0.9,0.7,1.5,1.5,1.5
				c0.9,0,1.5-0.7,1.5-1.5c0-0.9-0.6-1.6-1.5-1.6C230,5.9,229.3,6.6,229.3,7.4L229.3,7.4z M232.8,7.4c0,1.1-0.9,2-2,2
				c-1.1,0-2-0.9-2-2c0-1.1,0.9-1.9,2-1.9C232,5.5,232.8,6.4,232.8,7.4L232.8,7.4z"/>
			<path id="Fill-53" d="M2.3,12.3c0.4,0.1,0.8,0.2,1.1,0.2c1.4,0,2-0.8,2-2.5V9.9c0-1.4-0.6-2.1-1.8-2.1c-0.3,0-0.5,0-0.8,0.1
				C2.6,8,2.4,8,2.3,8.1V12.3z M0.7,13.3V3.9h1.6v3.2c0.3-0.2,0.6-0.3,0.9-0.4c0.3-0.1,0.6-0.1,1-0.1c1,0,1.7,0.3,2.2,0.8
				c0.5,0.6,0.7,1.4,0.7,2.4V10c0,2.5-1.2,3.8-3.7,3.8c-0.5,0-1,0-1.5-0.1C1.5,13.5,1.1,13.4,0.7,13.3L0.7,13.3z"/>
			<path id="Fill-55" d="M7.9,6.6h1.7C9.6,7.5,9.8,8.4,10,9.3c0.2,0.9,0.4,1.5,0.6,2c0.2,0.5,0.3,0.7,0.4,0.8l0.1,0.1
				c1-1.7,1.5-3.5,1.5-5.3V6.6h1.6v0.3c0,0.8-0.1,1.5-0.3,2.3c-0.2,0.7-0.4,1.4-0.6,1.9c-0.2,0.5-0.5,1.1-1,1.8
				c-0.4,0.7-0.8,1.2-1.1,1.6c-0.3,0.4-0.7,0.9-1.3,1.7c-0.1,0.1-0.1,0.2-0.2,0.2l-1.2-0.8c0.7-0.8,1.3-1.6,1.7-2.2
				c-0.1-0.2-0.3-0.4-0.4-0.6c-0.2-0.3-0.3-0.6-0.6-1c-0.2-0.4-0.4-0.9-0.6-1.4C8.5,9.9,8.3,9.4,8.2,8.7C8,8,7.9,7.3,7.9,6.6"/>
		</g>
	</g>
</g>
</svg>
