<?xml version="1.0" encoding="utf-8"?>
<!-- Generator: Adobe Illustrator 20.1.0, SVG Export Plug-In . SVG Version: 6.00 Build 0)  -->
<svg version="1.1" id="Layer_1" xmlns="http://www.w3.org/2000/svg" xmlns:xlink="http://www.w3.org/1999/xlink" x="0px" y="0px"
	 viewBox="0 0 100 100" style="enable-background:new 0 0 100 100;" xml:space="preserve">
<g>
	<path d="M50.3,1.3C22.9,1.3,0.6,23.6,0.6,51s22.3,49.7,49.7,49.7c27.4,0,49.7-22.3,49.7-49.7S77.7,1.3,50.3,1.3z M50.3,96
		c-24.8,0-45-20.2-45-45s20.2-45,45-45s45,20.2,45,45S75.1,96,50.3,96z"/>
	<path d="M69.8,32.1L41.7,60.2L31.2,49.6c-0.8-0.8-1.8-1.2-3-1.2c-1.1,0-2.2,0.4-3,1.2c-1.7,1.7-1.7,4.2,0,5.9l13.1,13.1
		c0.4,0.4,1,0.8,1.6,1c1.8,0.9,3.8,0.5,5-0.8l30.8-30.7c1.6-1.6,1.7-4.4,0.1-6.2C74.1,30.3,71.5,30.4,69.8,32.1z"/>
</g>
</svg>
