<?xml version="1.0" encoding="utf-8"?>
<!-- Generator: Adobe Illustrator 20.1.0, SVG Export Plug-In . SVG Version: 6.00 Build 0)  -->
<svg version="1.1" id="Layer_1" xmlns="http://www.w3.org/2000/svg" xmlns:xlink="http://www.w3.org/1999/xlink" x="0px" y="0px"
	 viewBox="0 0 100 100" style="enable-background:new 0 0 100 100;" xml:space="preserve">
<path d="M50.1,100l-1.6-1.7c-1.4-1.5-33.9-37.8-33.9-63C14.7,15.5,30.2,0,50.1,0C70,0,85.6,15.5,85.6,35.3c0,25.2-32.5,61.5-33.9,63
	L50.1,100z M50.1,4.2c-17.5,0-31.3,13.6-31.3,31.1c0,20.5,24.7,50.8,31.3,58.4c6.5-7.6,31.3-37.8,31.3-58.4
	C81.4,17.9,67.7,4.2,50.1,4.2z M50.8,52.6c-9.4,0-16.8-7.3-16.8-16.7s7.4-16.7,16.8-16.7c9.4,0,16.8,7.3,16.8,16.7
	S60.2,52.6,50.8,52.6z M50.8,23.4c-7,0-12.6,5.5-12.6,12.5s5.5,12.5,12.6,12.5c7,0,12.6-5.5,12.6-12.5S57.8,23.4,50.8,23.4z"/>
</svg>
