<svg id="Layer_1" data-name="Layer 1" xmlns="http://www.w3.org/2000/svg" viewBox="0 0 94.53 94.53"><title>habilidad</title><path d="M50.59,97.29A47.26,47.26,0,1,1,97.85,50,47.32,47.32,0,0,1,50.59,97.29Zm0-90.42A43.15,43.15,0,1,0,93.74,50,43.2,43.2,0,0,0,50.59,6.87Z" transform="translate(-3.32 -2.77)"/><path d="M44.33,72.13a2.05,2.05,0,0,1-1.6-3.34L56.5,51.57H36.05L56.22,26.65a2.05,2.05,0,1,1,3.19,2.58L44.67,47.46H65.05L45.93,71.36A2.05,2.05,0,0,1,44.33,72.13Z" transform="translate(-3.32 -2.77)"/></svg>