<?xml version="1.0" encoding="utf-8"?>
<!-- Generator: Adobe Illustrator 20.1.0, SVG Export Plug-In . SVG Version: 6.00 Build 0)  -->
<svg version="1.1" id="Layer_1" xmlns="http://www.w3.org/2000/svg" xmlns:xlink="http://www.w3.org/1999/xlink" x="0px" y="0px"
	 viewBox="0 0 100 100" style="enable-background:new 0 0 100 100;" xml:space="preserve">
<style type="text/css">
	.st0{clip-path:url(#SVGID_2_);}
	.st1{clip-path:url(#SVGID_4_);}
</style>
<title>tel</title>
<g id="Ilustración_1">
	<g>
		<defs>
			<rect id="SVGID_1_" x="9" y="9" width="83.3" height="83.5"/>
		</defs>
		<clipPath id="SVGID_2_">
			<use xlink:href="#SVGID_1_"  style="overflow:visible;"/>
		</clipPath>
		<g class="st0">
			<defs>
				<rect id="SVGID_3_" x="9" y="9" width="83.3" height="83.5"/>
			</defs>
			<clipPath id="SVGID_4_">
				<use xlink:href="#SVGID_3_"  style="overflow:visible;"/>
			</clipPath>
			<path class="st1" d="M35.7,39.2c6.2,11.7,15.2,20.3,26.6,26.5c3-3,5.9-5.9,8.9-8.9c3.5,1.6,7,3.2,10.5,4.8
				c3.3,1.5,6.5,3.2,9.8,4.7c0.8,0.4,0.9,0.8,0.9,1.5c-0.3,3.5-0.5,7-0.9,10.4c-0.3,3.3-0.7,6.5-1.2,9.8c-0.1,1-0.5,2-0.7,3
				c-0.3,1-0.9,1.4-2.1,1.4c-5.6,0-11-1-16.3-2.6C61,86.9,51.8,82,43.6,75.4c-4.3-3.4-8.4-7.1-12.2-11.1c-5.4-5.7-9.9-12.1-13.7-19
				c-3-5.7-5.4-11.6-7-17.8c-1-3.9-1.7-7.8-1.6-11.8c0-1-0.4-2.5,0.1-2.9c0.9-0.8,2.3-1.2,3.6-1.4c3.1-0.5,6.3-0.9,9.5-1.2
				c3.9-0.4,7.7-0.6,11.6-0.9c0.3,0,0.5-0.2,1-0.3c0.3,0.7,0.6,1.4,0.9,2.1c2,4.1,4,8.3,6,12.4c0.9,1.9,1.8,3.9,2.8,5.8
				c0.4,0.7,0.2,1.2-0.3,1.7C41.5,33.7,38.6,36.4,35.7,39.2 M13.4,15.5c0.1,1.9,0.2,3.4,0.4,4.9c0.9,5.9,2.6,11.7,5.1,17.1
				C22.7,46.1,27.9,54,34.3,61c3.8,4.1,7.9,8,12.5,11.4c8.3,6.3,17.4,11.2,27.5,13.9c3.3,0.9,6.7,1.3,10.1,1.8
				c0.9,0.2,1.5,0,1.7-1.3c0.4-4,0.9-8,1.4-12c0.2-1.4,0-2.9,0.4-4.2c0.3-1-0.1-1.3-0.8-1.6c-1.6-0.7-3.2-1.5-4.8-2.3
				c-3.3-1.5-6.6-3.1-10-4.7c-3,3-6,6.1-9,9.1c-14.7-7.3-26-17.9-32.8-33c3.1-3,6.3-6,9.4-9c-2.3-4.9-4.7-9.7-7-14.6
				c-0.5-1-1.1-1.2-2-1c-1.5,0.2-3.1,0.4-4.6,0.6C22,14.6,17.8,15,13.4,15.5"/>
		</g>
	</g>
</g>
</svg>
